<?xml version="1.0" encoding="UTF-8" standalone="no"?>
<!-- Created with Inkscape (http://www.inkscape.org/) -->

<svg
   version="1.1"
   id="svg2"
   width="2125.3333"
   height="598.66669"
   viewBox="0 0 2125.3333 598.66669"
   xmlns="http://www.w3.org/2000/svg"
   xmlns:svg="http://www.w3.org/2000/svg">
  <defs
     id="defs6" />
  <g
     id="g8"
     transform="matrix(1.3333333,0,0,-1.3333333,0,598.66667)">
    <path
       d="M 0,449 H 1594 V 0 H 0 v 449 m 1518.24,-8.21 c -11.62,-0.95 -22.91,-6.55 -30.14,-15.77 -13.24,-16.41 -11.99,-42.75 3.14,-57.55 15.91,-15.73 44.03,-16.32 60.75,-1.56 14.96,12.97 18.04,36.64 8.49,53.65 -8.09,14.83 -25.66,22.98 -42.24,21.23 M 18.59,406.97 C 18.6,274.65 18.54,142.32 18.62,10 c 46.8,0.02 93.59,0.01 140.39,0.01 25.5,-0.16 51.13,2.27 75.87,8.64 22.83,5.82 44.88,15.04 64.55,28.07 18.63,12.24 34.91,28.1 47.53,46.48 11.31,16.38 19.53,34.77 24.98,53.88 8.53,30.78 10.01,63.3 6,94.92 -4.33,33.09 -16.32,65.55 -36.96,91.99 -19.49,25.29 -46.42,44.41 -76.06,56.01 -30.38,12.09 -63.26,16.85 -95.83,16.98 -50.16,-0.01 -100.33,0.01 -150.5,-0.01 m 1070.12,0.02 c 42.87,-62.99 85.77,-125.95 128.61,-188.96 -47.41,-69.3 -94.69,-138.68 -142.03,-208.02 28.77,-0.04 57.54,0.03 86.32,-0.04 32.7,48.43 65.26,96.96 97.98,145.37 32.78,-48.49 65.67,-96.9 98.5,-145.36 31.79,0.05 63.58,0.02 95.37,0.02 -47.64,68.67 -95.14,137.44 -142.73,206.15 41.33,63.63 82.79,127.18 124.08,190.85 -27.5,0 -55,0 -82.49,0 -28.36,-42.68 -56.67,-85.39 -85.1,-128.01 -29.47,42.62 -58.88,85.27 -88.23,127.98 -30.09,0.06 -60.19,0.03 -90.28,0.02 M 522.98,314.82 c -23.59,-2.69 -46.54,-11.84 -64.94,-26.94 -21.27,-17.13 -35.82,-41.51 -43.83,-67.4 -9.11,-29.97 -10.71,-61.99 -6.4,-92.94 3.27,-21.86 10.07,-43.4 21.58,-62.35 10.06,-16.62 23.76,-31.13 40.25,-41.47 18.86,-12.05 41.08,-18.26 63.33,-19.45 18.83,-1.18 38.05,1.44 55.44,8.95 17.19,7.22 32.08,19.44 43.11,34.43 0.4,-0.37 1.21,-1.1 1.62,-1.47 0.39,-12.04 0.04,-24.11 0.16,-36.16 26.02,-0.04 52.04,-0.04 78.06,0 -0.01,100 -0.05,200 0.02,300 -26.02,-0.05 -52.03,0.02 -78.05,-0.04 -0.09,-12.91 0.05,-25.82 -0.08,-38.72 -1,0.15 -1.91,0.51 -2.36,1.48 -11.85,16.48 -28.74,29.31 -47.86,36.15 -19.09,7.11 -39.95,8.4 -60.05,5.93 m 352.6,-11.27 c -16.48,-8.17 -30.69,-20.84 -40.7,-36.27 -0.01,14.24 0.02,28.47 -0.02,42.7 -23.46,0.06 -46.92,-0.01 -70.38,0.03 0.01,-99.98 0.05,-199.97 -0.02,-299.95 26.25,-0.13 52.51,-0.02 78.76,-0.06 0.01,62.34 -0.06,124.68 0.04,187.02 4.8,18.26 16.93,34.94 33.79,43.83 16.7,9.05 37.02,10.02 55.08,4.8 12.64,-3.63 23.24,-13.27 28.19,-25.44 6.96,-16.11 6.44,-34.01 6.38,-51.19 -0.01,-53.02 0.01,-106.03 -0.01,-159.04 26.23,0 52.47,0.08 78.71,-0.03 -0.02,61.36 0.01,122.73 -0.01,184.1 0.65,28.89 -3.99,59.59 -21.99,83.11 -8.36,11.15 -19.53,20.07 -31.97,26.28 -17.17,8.41 -36.37,11.99 -55.38,12.42 -20.72,0.71 -41.84,-3.01 -60.47,-12.31 m 607.23,6.43 c -0.03,-99.99 0,-199.98 -0.02,-299.97 26.22,-0.07 52.44,0.02 78.66,-0.04 0.03,100.01 0,200.02 0.01,300.03 -26.22,-0.05 -52.44,-0.01 -78.65,-0.02 m -1379.09,31.1 c 23.07,0.01 46.15,0.06 69.22,-0.03 24.54,-0.06 49.54,-6.15 69.95,-20.12 14.1,-9.79 25.85,-22.99 33.85,-38.17 12.61,-23.06 17.15,-49.73 16.93,-75.79 -0.09,-27.96 -6.82,-56.58 -22.91,-79.79 C 258.74,110.1 242,96.31 222.73,88.19 203.08,79.58 181.41,76.36 160.07,76.53 c -18.79,0 -37.57,0 -56.36,0 0.01,88.18 0,176.37 0.01,264.55 M 549.6,246.21 c 18.27,2.24 37.57,-1.38 52.95,-11.76 14.07,-9.33 23.84,-24.19 28.54,-40.26 1.29,-3.61 0.85,-7.48 0.92,-11.24 0,-16.96 -0.02,-33.92 0.01,-50.89 0.13,-4.27 -1.57,-8.29 -2.94,-12.25 -5.29,-14.75 -15.28,-27.97 -28.66,-36.26 -15.8,-9.9 -35.3,-12.84 -53.57,-10.07 -16.92,2.57 -32.94,11.22 -43.86,24.47 -13.15,15.47 -19.05,35.95 -19.88,55.96 -0.85,20.88 2.89,42.67 14.57,60.36 11.32,17.78 30.99,29.7 51.92,31.94"
       style="fill:#ffffff;fill-opacity:1;fill-rule:nonzero;stroke:none"
       id="path10" />
    <path
       d="m 1518.24,440.79 c 16.58,1.75 34.15,-6.4 42.24,-21.23 9.55,-17.01 6.47,-40.68 -8.49,-53.65 -16.72,-14.76 -44.84,-14.17 -60.75,1.56 -15.13,14.8 -16.38,41.14 -3.14,57.55 7.23,9.22 18.52,14.82 30.14,15.77 M 18.59,406.97 c 50.17,0.02 100.34,0 150.5,0.01 32.57,-0.13 65.45,-4.89 95.83,-16.98 29.64,-11.6 56.57,-30.72 76.06,-56.01 20.64,-26.44 32.63,-58.9 36.96,-91.99 4.01,-31.62 2.53,-64.14 -6,-94.92 C 366.49,127.97 358.27,109.58 346.96,93.2 334.34,74.82 318.06,58.96 299.43,46.72 279.76,33.69 257.71,24.47 234.88,18.65 210.14,12.28 184.51,9.85 159.01,10.01 112.21,10.01 65.42,10.02 18.62,10 18.54,142.32 18.6,274.65 18.59,406.97 m 85.13,-65.89 c -0.01,-88.18 0,-176.37 -0.01,-264.55 18.79,0 37.57,0 56.36,0 21.34,-0.17 43.01,3.05 62.66,11.66 19.27,8.12 36.01,21.91 48.03,38.99 16.09,23.21 22.82,51.83 22.91,79.79 0.22,26.06 -4.32,52.73 -16.93,75.79 -8,15.18 -19.75,28.38 -33.85,38.17 -20.41,13.97 -45.41,20.06 -69.95,20.12 -23.07,0.09 -46.15,0.04 -69.22,0.03 m 984.99,65.91 c 30.09,0.01 60.19,0.04 90.28,-0.02 29.35,-42.71 58.76,-85.36 88.23,-127.98 28.43,42.62 56.74,85.33 85.1,128.01 27.49,0 54.99,0 82.49,0 -41.29,-63.67 -82.75,-127.22 -124.08,-190.85 47.59,-68.71 95.09,-137.48 142.73,-206.15 -31.79,0 -63.58,0.03 -95.37,-0.02 -32.83,48.46 -65.72,96.87 -98.5,145.36 -32.72,-48.41 -65.28,-96.94 -97.98,-145.37 -28.78,0.07 -57.55,0 -86.32,0.04 47.34,69.34 94.62,138.72 142.03,208.02 -42.84,63.01 -85.74,125.97 -128.61,188.96 M 522.98,314.82 c 20.1,2.47 40.96,1.18 60.05,-5.93 19.12,-6.84 36.01,-19.67 47.86,-36.15 0.45,-0.97 1.36,-1.33 2.36,-1.48 0.13,12.9 -0.01,25.81 0.08,38.72 26.02,0.06 52.03,-0.01 78.05,0.04 -0.07,-100 -0.03,-200 -0.02,-300 -26.02,-0.04 -52.04,-0.04 -78.06,0 -0.12,12.05 0.23,24.12 -0.16,36.16 -0.41,0.37 -1.22,1.1 -1.62,1.47 C 620.49,32.66 605.6,20.44 588.41,13.22 571.02,5.71 551.8,3.09 532.97,4.27 c -22.25,1.19 -44.47,7.4 -63.33,19.45 -16.49,10.34 -30.19,24.85 -40.25,41.47 -11.51,18.95 -18.31,40.49 -21.58,62.35 -4.31,30.95 -2.71,62.97 6.4,92.94 8.01,25.89 22.56,50.27 43.83,67.4 18.4,15.1 41.35,24.25 64.94,26.94 M 549.6,246.21 C 528.67,243.97 509,232.05 497.68,214.27 486,196.58 482.26,174.79 483.11,153.91 c 0.83,-20.01 6.73,-40.49 19.88,-55.96 10.92,-13.25 26.94,-21.9 43.86,-24.47 18.27,-2.77 37.77,0.17 53.57,10.07 13.38,8.29 23.37,21.51 28.66,36.26 1.37,3.96 3.07,7.98 2.94,12.25 -0.03,16.97 -0.01,33.93 -0.01,50.89 -0.07,3.76 0.37,7.63 -0.92,11.24 -4.7,16.07 -14.47,30.93 -28.54,40.26 -15.38,10.38 -34.68,14 -52.95,11.76 m 325.98,57.34 c 18.63,9.3 39.75,13.02 60.47,12.31 19.01,-0.43 38.21,-4.01 55.38,-12.42 12.44,-6.21 23.61,-15.13 31.97,-26.28 18,-23.52 22.64,-54.22 21.99,-83.11 0.02,-61.37 -0.01,-122.74 0.01,-184.1 -26.24,0.11 -52.48,0.03 -78.71,0.03 0.02,53.01 0,106.02 0.01,159.04 0.06,17.18 0.58,35.08 -6.38,51.19 -4.95,12.17 -15.55,21.81 -28.19,25.44 -18.06,5.22 -38.38,4.25 -55.08,-4.8 -16.86,-8.89 -28.99,-25.57 -33.79,-43.83 -0.1,-62.34 -0.03,-124.68 -0.04,-187.02 -26.25,0.04 -52.51,-0.07 -78.76,0.06 0.07,99.98 0.03,199.97 0.02,299.95 23.46,-0.04 46.92,0.03 70.38,-0.03 0.04,-14.23 0.01,-28.46 0.02,-42.7 10.01,15.43 24.22,28.1 40.7,36.27 m 607.23,6.43 c 26.21,0.01 52.43,-0.03 78.65,0.02 -0.01,-100.01 0.02,-200.02 -0.01,-300.03 -26.22,0.06 -52.44,-0.03 -78.66,0.04 0.02,99.99 -0.01,199.98 0.02,299.97"
       style="fill:#000000;fill-opacity:1;fill-rule:nonzero;stroke:none"
       id="path12" />
  </g>
</svg>
